# xmcd CD database file generated by Grip 2.96
# 
# Track frame offsets:
#       182
#       15952
#       30412
#       43965
#       56657
#       69452
#       82505
#       96267
#       109622
#       123077
#       137260
#       150085
#       162310
#       176425
#       190422
#       202490
#       216175
#       230272
#       242292
#       254382
#       267582
# 
# Disc length: 3770 seconds
# 
# Revision: 0
# Processed by: cddbd v1.4PL0 Copyright (c) Steve Scherf et al.
# Submitted via: Grip 2.96
# 
DISCID=0d0eb815
DTITLE=Washboard Sam - Best of Blues: Washboard Sam
DYEAR=1900
DGENRE=
TTITLE0=I'm a Prowlin' Groundhog
TTITLE1=Mixed Up Blues
TTITLE2=The Big Boat
TTITLE3=Yellow, Black and Brown
TTITLE4=Jumpin' Rooster
TTITLE5=Walkin' In My Sleep
TTITLE6=Washboard Swing
TTITLE7=Good Old Easy Street
TTITLE8=I Believe I'll Make a Change
TTITLE9=That Will Get It
TTITLE10=Don't Fool With Me
TTITLE11=Jersey Cow Blues
TTITLE12=So Early In the Morning
TTITLE13=Digging My Potatoes - No. 2
TTITLE14=Morning Dove Blues
TTITLE15=Dissatisfied Blues
TTITLE16=Good Luck Blues
TTITLE17=Ain't You Comin' Out Tonight
TTITLE18=River Hip Mama
TTITLE19=Don't Have To Sing the Blues
TTITLE20=You Can't Have None of That
EXTD=
EXTT0=
EXTT1=
EXTT2=
EXTT3=
EXTT4=
EXTT5=
EXTT6=
EXTT7=
EXTT8=
EXTT9=
EXTT10=
EXTT11=
EXTT12=
EXTT13=
EXTT14=
EXTT15=
EXTT16=
EXTT17=
EXTT18=
EXTT19=
EXTT20=
PLAYORDER=
